<svg width="194" height="206" viewBox="0 0 194 206" fill="none" xmlns="http://www.w3.org/2000/svg">
<path fill-rule="evenodd" clip-rule="evenodd" d="M96.9999 0C88.6337 0 74.6536 3.41188 61.4979 7.21C48.0392 11.0725 34.4713 15.6431 26.4931 18.4112C23.1574 19.581 20.2001 21.7261 17.9609 24.6003C15.7217 27.4744 14.2915 30.961 13.8346 34.6595C6.60807 92.3009 23.3769 135.02 43.7227 163.281C52.3506 175.37 62.638 186.016 74.2413 194.863C78.9216 198.378 83.2623 201.069 86.9483 202.91C90.3433 204.609 93.993 206 96.9999 206C100.007 206 103.644 204.609 107.052 202.91C111.495 200.617 115.746 197.925 119.759 194.863C131.362 186.016 141.65 175.37 150.277 163.281C170.623 135.02 187.392 92.3009 180.165 34.6595C179.709 30.9592 178.279 27.4706 176.04 24.5942C173.801 21.7179 170.843 19.5704 167.507 18.3984C155.925 14.3661 144.253 10.6313 132.502 7.19713C119.346 3.42475 105.366 0 96.9999 0ZM123.02 66.2547C124.159 65.046 125.703 64.3669 127.312 64.3669C128.922 64.3669 130.466 65.046 131.605 66.2547C132.743 67.4635 133.383 69.103 133.383 70.8125C133.383 72.522 132.743 74.1615 131.605 75.3703L95.2297 113.995C94.6665 114.595 93.9975 115.07 93.261 115.395C92.5245 115.719 91.7349 115.887 90.9374 115.887C90.14 115.887 89.3504 115.719 88.6139 115.395C87.8774 115.07 87.2084 114.595 86.6452 113.995L68.4577 94.6828C67.894 94.0842 67.4469 93.3737 67.1418 92.5916C66.8368 91.8096 66.6798 90.9715 66.6798 90.125C66.6798 89.2785 66.8368 88.4404 67.1418 87.6584C67.4469 86.8763 67.894 86.1658 68.4577 85.5672C69.0214 84.9687 69.6905 84.4939 70.427 84.17C71.1635 83.8461 71.9528 83.6794 72.7499 83.6794C73.5471 83.6794 74.3364 83.8461 75.0729 84.17C75.8094 84.4939 76.4785 84.9687 77.0422 85.5672L90.9374 100.335L123.02 66.2547Z" fill="#2371CE"/>
</svg>
