<svg width="23" height="25" viewBox="0 0 23 25" fill="none" xmlns="http://www.w3.org/2000/svg">
<path d="M0.82551 6.44531H22.1745C22.628 6.44531 22.9956 6.09556 22.9956 5.66406V3.71094C22.9956 3.27944 22.628 2.92969 22.1745 2.92969H0.82551C0.371998 2.92969 0.00439453 3.27944 0.00439453 3.71094V5.66406C0.00439453 6.09556 0.371998 6.44531 0.82551 6.44531ZM0.82551 14.2578H22.1745C22.628 14.2578 22.9956 13.9081 22.9956 13.4766V11.5234C22.9956 11.0919 22.628 10.7422 22.1745 10.7422H0.82551C0.371998 10.7422 0.00439453 11.0919 0.00439453 11.5234V13.4766C0.00439453 13.9081 0.371998 14.2578 0.82551 14.2578ZM0.82551 22.0703H22.1745C22.628 22.0703 22.9956 21.7206 22.9956 21.2891V19.3359C22.9956 18.9044 22.628 18.5547 22.1745 18.5547H0.82551C0.371998 18.5547 0.00439453 18.9044 0.00439453 19.3359V21.2891C0.00439453 21.7206 0.371998 22.0703 0.82551 22.0703Z" fill="black"/>
</svg>
